<svg height="750" width="720" xmlns="http://www.w3.org/2000/svg">
<rect height="750" fill="#555" width="720"></rect>
<text fill="#7f7" font-family="Courier New" font-size="12" xml:space="preserve">
<tspan x="10" y="26">8 megabytes installed</tspan>
<tspan x="10" y="42"></tspan>
<tspan x="10" y="58">node_modules</tspan>
<tspan x="10" y="74">├─┬ express@3.4.8 </tspan>
<tspan x="10" y="90">│ ├── buffer-crc32@0.2.1 </tspan>
<tspan x="10" y="106">│ ├─┬ commander@1.3.2 </tspan>
<tspan x="10" y="122">│ │ └── keypress@0.1.0 </tspan>
<tspan x="10" y="138">│ ├─┬ connect@2.12.0 </tspan>
<tspan x="10" y="154">│ │ ├── batch@0.5.0 </tspan>
<tspan x="10" y="170">│ │ ├── bytes@0.2.1 </tspan>
<tspan x="10" y="186">│ │ ├─┬ multiparty@2.2.0 </tspan>
<tspan x="10" y="202">│ │ │ ├─┬ readable-stream@1.1.14 </tspan>
<tspan x="10" y="218">│ │ │ │ ├── core-util-is@1.0.2 </tspan>
<tspan x="10" y="234">│ │ │ │ ├── inherits@2.0.3 </tspan>
<tspan x="10" y="250">│ │ │ │ ├── isarray@0.0.1 </tspan>
<tspan x="10" y="266">│ │ │ │ └── string_decoder@0.10.31 </tspan>
<tspan x="10" y="282">│ │ │ └── stream-counter@0.2.0 </tspan>
<tspan x="10" y="298">│ │ ├── negotiator@0.3.0 </tspan>
<tspan x="10" y="314">│ │ ├── pause@0.0.1 </tspan>
<tspan x="10" y="330">│ │ ├── qs@0.6.6 </tspan>
<tspan x="10" y="346">│ │ ├── raw-body@1.1.2 </tspan>
<tspan x="10" y="362">│ │ └── uid2@0.0.3 </tspan>
<tspan x="10" y="378">│ ├── cookie@0.1.0 </tspan>
<tspan x="10" y="394">│ ├── cookie-signature@1.0.1 </tspan>
<tspan x="10" y="410">│ ├── debug@0.8.1 </tspan>
<tspan x="10" y="426">│ ├── fresh@0.2.0 </tspan>
<tspan x="10" y="442">│ ├── merge-descriptors@0.0.1 </tspan>
<tspan x="10" y="458">│ ├── methods@0.1.0 </tspan>
<tspan x="10" y="474">│ ├── mkdirp@0.3.5 </tspan>
<tspan x="10" y="490">│ ├── range-parser@0.0.4 </tspan>
<tspan x="10" y="506">│ └─┬ send@0.1.4 </tspan>
<tspan x="10" y="522">│   └── mime@1.2.11 </tspan>
<tspan x="10" y="538">├─┬ optimist@0.6.1 </tspan>
<tspan x="10" y="554">│ ├── minimist@0.0.10 </tspan>
<tspan x="10" y="570">│ └── wordwrap@0.0.3 </tspan>
<tspan x="10" y="586">├─┬ uri-template@1.0.1 </tspan>
<tspan x="10" y="602">│ └── pct-encode@1.0.2 </tspan>
<tspan x="10" y="618">└─┬ winston@2.1.1 </tspan>
<tspan x="10" y="634">  ├── async@1.0.0 </tspan>
<tspan x="10" y="650">  ├── colors@1.0.3 </tspan>
<tspan x="10" y="666">  ├── cycle@1.0.3 </tspan>
<tspan x="10" y="682">  ├── eyes@0.1.8 </tspan>
<tspan x="10" y="698">  ├── isstream@0.1.2 </tspan>
<tspan x="10" y="714">  ├── pkginfo@0.3.1 </tspan>
<tspan x="10" y="730">  └── stack-trace@0.0.9</tspan>
</text>
</svg>
